<svg id="Layer_1" data-name="Layer 1" xmlns="http://www.w3.org/2000/svg" viewBox="0 0 919.15 939.91"><defs><style>.cls-1{fill:#3f4184;}.cls-2{fill:#f1e421;}.cls-3{fill:#49b96f;}.cls-4{fill:none;stroke:#fff;stroke-miterlimit:10;stroke-width:10px;}</style></defs><title>logo-05</title><path class="cls-1" d="M880.78,214.64q-41.37-103-115.1-158.8T598.5,0h-72V156.87h72q86.15,0,130.92,73.91T774.19,448v49.71q-1,138.15-46.24,212.38T597,784.33H526.46V939.91H600q93-.64,166.94-56.81T881.51,724.94q40.63-102,40.64-233V448.65Q922.15,317.61,880.78,214.64Z"/><rect class="cls-2" x="6.79" width="143.54" height="461.79"/><rect class="cls-2" x="6.79" y="478.05" width="143.54" height="461.79"/><rect class="cls-3" x="183.83" width="143.54" height="461.79"/><rect class="cls-3" x="183.83" y="478.05" width="143.54" height="461.79"/><rect class="cls-1" x="360.87" width="143.54" height="461.79"/><rect class="cls-1" x="360.87" y="478.05" width="143.54" height="461.79"/><line class="cls-4" x1="78.56" x2="78.56" y2="939.85"/><line class="cls-4" x1="255.6" x2="255.6" y2="939.85"/><line class="cls-4" x1="432.64" x2="432.64" y2="939.85"/></svg>